HIERARCHY
ROOT hip
{
	OFFSET 0.000000 0.000000 0.000000 
	CHANNELS 6 Xposition Yposition Zposition Xrotation Zrotation Yrotation
	JOINT abdomen
	{
		OFFSET 0.000000 3.402643 0.000000 
		CHANNELS 3 Xrotation Zrotation Yrotation
		JOINT chest
		{
			OFFSET 0.000000 8.438565 -0.680529 
			CHANNELS 3 Xrotation Zrotation Yrotation
			JOINT neck
			{
				OFFSET 0.000000 10.207942 -0.272212 
				CHANNELS 3 Xrotation Zrotation Yrotation
				JOINT head
				{
					OFFSET 0.000000 3.130431 0.000000 
					CHANNELS 3 Xrotation Zrotation Yrotation
					End Site
					{
						OFFSET 0.000000 3.130435 0.000000 
					}
				}
			}
			JOINT lCollar
			{
				OFFSET 3.470700 6.669187 -0.816635 
				CHANNELS 3 Yrotation Zrotation Xrotation
				JOINT lShldr
				{
					OFFSET 3.198488 0.000000 0.000000 
					CHANNELS 3 Zrotation Yrotation Xrotation
					JOINT lForeArm
					{
						OFFSET 10.139888 0.000000 0.000000 
						CHANNELS 3 Yrotation Zrotation Xrotation
						JOINT lHand
						{
							OFFSET 8.370511 0.000000 0.000000 
							CHANNELS 3 Zrotation Yrotation Xrotation
							End Site
							{
								OFFSET 4.083176 0.000000 0.000000 
							}
						}
					}
				}
			}
			JOINT rCollar
			{
				OFFSET -3.470700 6.669187 -0.816635 
				CHANNELS 3 Yrotation Zrotation Xrotation
				JOINT rShldr
				{
					OFFSET -3.198488 0.000000 0.000000 
					CHANNELS 3 Zrotation Yrotation Xrotation
					JOINT rForeArm
					{
						OFFSET -10.139888 0.000000 0.000000 
						CHANNELS 3 Yrotation Zrotation Xrotation
						JOINT rHand
						{
							OFFSET -8.370511 0.000000 0.000000 
							CHANNELS 3 Zrotation Yrotation Xrotation
							End Site
							{
								OFFSET -4.083176 0.000000 0.000000 
							}
						}
					}
				}
			}
		}
	}
	JOINT lThigh
	{
		OFFSET 5.308129 -1.633274 1.361059 
		CHANNELS 3 Xrotation Zrotation Yrotation
		JOINT lShin
		{
			OFFSET -2.041588 -20.007561 0.000000 
			CHANNELS 3 Xrotation Zrotation Yrotation
			JOINT lFoot
			{
				OFFSET 0.000000 -19.190928 -1.224953 
				CHANNELS 3 Xrotation Yrotation Zrotation
				End Site
				{
					OFFSET 0.000000 -2.449906 4.627600 
				}
			}
		}
	}
	JOINT rThigh
	{
		OFFSET -5.308129 -1.633274 1.361059 
		CHANNELS 3 Xrotation Zrotation Yrotation
		JOINT rShin
		{
			OFFSET 2.041588 -20.007561 0.000000 
			CHANNELS 3 Xrotation Zrotation Yrotation
			JOINT rFoot
			{
				OFFSET 0.000000 -19.190928 -1.224953 
				CHANNELS 3 Xrotation Yrotation Zrotation
				End Site
				{
					OFFSET 0.000000 -2.449906 4.627600 
				}
			}
		}
	}
}
MOTION
Frames: 20
Frame Time: 0.033333
-0.168293 52.262211 0.254694 -6.542969 3.476563 -149.813858 22.343773 -10.961013 -7.289238 -16.650391 7.431641 1.796875 51.063168 8.107644 2.471410 -62.617188 -7.167968 4.705812 2.000000 -2.000000 0.000000 -73.291016 19.599607 1.699218 -51.116905 -2.125504 -2.112100 2.760809 71.288490 0.736476 -2.000000 2.000000 0.000000 76.738281 -25.253908 12.534895 55.814411 1.401800 -2.115438 -61.291336 -68.036942 61.492622 -0.039266 12.079941 15.710345 8.933759 -5.209651 -0.983198 -2.864370 1.992999 -8.383019 9.410861 -12.303220 -21.485598 1.892533 4.787520 0.318194 1.079812 -4.375391 16.921621 
-0.344562 52.325245 0.525033 -6.884765 3.662110 -149.696640 22.687014 -11.203573 -7.227792 -16.826172 7.441407 1.767578 51.063168 8.107644 2.471410 -62.705078 -8.027344 7.020285 2.000000 -2.000000 0.000000 -73.369141 19.521482 1.992187 -51.280617 -1.817030 -2.022526 2.801914 71.249519 0.277162 -2.000000 2.000000 0.000000 77.080078 -25.156250 11.880615 55.990456 1.402368 -2.125183 -61.602726 -68.182625 61.660667 -0.353382 11.650939 16.021873 9.113549 -5.202404 -1.173697 -3.389027 1.665815 -8.153351 9.469518 -12.644807 -21.721945 1.737016 5.208372 0.323975 1.078033 -4.062665 16.294918 
-0.531258 52.372509 0.805799 -7.246094 3.994141 -149.570313 22.845276 -11.532408 -6.992362 -16.826172 7.441407 1.943359 51.063168 8.107644 2.471410 -62.617188 -8.730469 9.246563 2.000000 -2.000000 0.000000 -72.880859 19.296875 2.220026 -51.280617 -1.817030 -2.022526 2.555857 71.073196 -0.111325 -2.000000 2.000000 0.000000 77.197266 -25.009766 11.259766 55.990456 1.402368 -2.125183 -61.602726 -68.182625 61.660667 -0.967022 11.484096 15.631690 8.933354 -5.209435 -1.002675 -3.469544 2.034019 -8.118756 8.520764 -12.858293 -22.169651 1.892251 4.777089 0.308456 2.100908 -3.307860 16.531670 
-0.711855 52.419781 1.083925 -7.412109 4.179688 -149.432892 23.201933 -12.024244 -6.851671 -17.011721 7.275391 2.060547 51.063168 8.107644 2.471410 -62.695309 -9.414062 11.316763 2.000000 -2.000000 0.000000 -72.568359 19.042967 2.734375 -51.457760 -1.937430 -2.074176 2.850574 70.878532 0.041929 -2.000000 2.000000 0.000000 77.412109 -25.214842 10.791016 56.342297 1.393187 -2.135495 -61.134060 -68.107201 61.007030 -1.523968 11.346767 15.040724 8.408737 -5.191306 -0.958437 -2.973110 2.369300 -7.745537 8.040586 -13.012672 -22.492989 1.883867 4.780412 0.307668 2.799616 -2.877337 16.196381 
-0.905531 52.459167 1.374515 -7.783203 4.511719 -149.325409 23.536036 -12.351963 -6.649592 -17.011721 7.275391 2.236329 51.063168 8.107644 2.471410 -62.949223 -10.078123 13.437501 2.000000 -2.000000 0.000000 -72.119141 18.818357 3.125000 -51.456676 -1.807850 -2.032840 2.595456 70.692413 -0.346397 -2.000000 2.000000 0.000000 77.236328 -25.283201 10.458985 56.694134 1.384006 -2.145808 -61.015301 -67.774864 60.755379 -2.021656 10.914611 14.811897 8.206126 -5.202179 -0.941889 -3.012978 2.728316 -7.546504 7.542148 -13.314675 -22.834715 1.883861 4.780415 0.307668 3.335059 -2.185124 15.992891 
-1.093956 52.506439 1.668553 -8.124999 4.697266 -149.208191 23.865883 -12.850496 -6.491228 -17.187500 7.285157 2.218035 51.063168 8.107644 2.471410 -63.017578 -10.595702 15.478515 2.000000 -2.000000 0.000000 -71.855469 18.437502 3.421059 -51.457760 -1.937430 -2.074176 2.865902 70.165657 0.040799 -2.000000 2.000000 0.000000 77.285156 -25.498047 9.814453 57.045994 1.365076 -2.156688 -60.719925 -67.630234 60.616398 -2.373014 10.578486 14.588150 8.012039 -5.234861 -0.888276 -3.065628 2.765927 -7.499672 7.045018 -13.587704 -23.536016 1.884666 4.780097 0.307666 3.994659 -1.409189 15.436327 
-1.290492 52.553707 1.952396 -8.486328 4.853516 -149.091797 24.024448 -13.172477 -6.277151 -17.187500 7.285157 2.393816 51.063168 8.107644 2.471410 -63.281250 -11.249999 17.597658 2.000000 -2.000000 0.000000 -71.660149 17.949221 3.987386 -51.281696 -1.946611 -2.063861 2.163938 69.627174 -0.840940 -2.000000 2.000000 0.000000 77.119141 -25.839846 9.277345 57.398102 1.356463 -2.176746 -59.635399 -67.274696 59.510094 -2.890401 10.238101 14.527563 8.011315 -5.253957 -0.889267 -3.221189 2.871365 -6.970576 6.608148 -14.011140 -23.684147 1.883837 4.780394 0.297912 4.673283 -0.844430 15.142927 
-1.472632 52.608845 2.243021 -8.662109 5.205079 -148.797943 24.359358 -13.500157 -6.073633 -17.363281 7.294922 2.539063 51.063168 8.107644 2.471410 -63.535156 -11.748046 19.687504 2.000000 -2.000000 0.000000 -71.396484 17.412111 4.257813 -51.105915 -1.946611 -2.063861 2.689408 69.091019 -0.300257 -2.000000 2.000000 0.000000 77.070313 -26.074221 8.867187 57.749939 1.347282 -2.187059 -60.051289 -67.346786 59.929024 -3.475329 10.137738 13.996271 7.832021 -5.239624 -0.921644 -2.944701 3.095870 -6.868930 6.041833 -14.244524 -24.003204 1.705899 4.784888 0.313172 5.413845 -0.526026 15.162824 
-1.659041 52.671879 2.528392 -9.013672 5.361329 -148.680725 24.709293 -13.982604 -5.933264 -17.363279 7.119141 2.676991 51.063168 8.107644 2.471410 -63.955078 -12.216797 21.638559 2.000000 -2.000000 0.000000 -71.064461 17.050779 4.892578 -51.104836 -1.817030 -2.022526 2.450533 69.090538 -0.668410 -2.000000 2.000000 0.000000 77.246094 -26.279299 8.212892 57.925987 1.347850 -2.196804 -58.916344 -67.048172 58.775826 -3.924172 9.883398 13.601939 7.485912 -5.244886 -0.864042 -2.621522 3.240789 -6.832750 5.745771 -14.572784 -24.530052 1.883570 4.770025 0.307687 6.340270 0.300526 14.949725 
-1.827583 52.719151 2.817859 -9.208984 5.722656 -148.593750 24.878990 -14.215831 -5.869466 -17.539063 7.128906 2.657462 51.063168 8.107644 2.471410 -64.531250 -12.480469 23.603516 2.000000 -2.000000 0.000000 -70.791016 16.689453 5.322266 -51.105915 -1.946611 -2.063861 2.675173 69.442551 -0.309195 -2.000000 2.000000 0.000000 77.080078 -26.611328 7.778829 58.277313 1.327784 -2.188193 -59.240158 -66.809425 59.236412 -4.373498 9.475178 13.716039 7.659155 -5.253280 -0.849974 -2.841936 3.125813 -6.434898 5.268688 -14.926639 -24.855642 1.883636 4.779972 0.141820 6.607094 0.712459 14.563300 
-1.988848 52.766415 3.094389 -9.560546 5.869141 -148.475571 25.213972 -14.534340 -5.663018 -17.539063 7.128906 2.833243 51.063168 8.107644 2.471410 -65.302734 -12.724609 25.761719 2.000000 -2.000000 0.000000 -70.791016 16.699219 5.566407 -51.280598 -1.826779 -2.021957 2.199068 69.441673 -1.046768 -2.000000 2.000000 0.000000 77.314453 -26.982424 7.349085 58.629444 1.299672 -2.209385 -58.612988 -66.519165 58.559761 -4.783903 9.174817 13.345984 6.956040 -5.243038 -0.819768 -2.207269 3.651942 -6.227956 4.599135 -15.078610 -25.148249 1.887809 4.788832 0.142605 7.162087 0.983829 14.514543 
-2.136503 52.813679 3.361117 -9.902344 6.054688 -148.182571 25.559105 -14.855113 -5.480931 -17.714844 7.128907 2.813712 51.063168 8.107644 2.471410 -66.230476 -12.939453 27.988281 2.000000 -2.000000 0.000000 -70.576172 16.826172 5.292969 -51.457760 -1.937430 -2.074176 1.742167 69.089531 -1.549732 -2.000000 2.000000 0.000000 77.216797 -27.197266 7.241631 58.992924 1.480265 -2.286887 -57.952003 -66.296364 58.059834 -5.302851 8.993709 13.135496 7.319527 -5.242507 -0.869508 -2.718784 3.436789 -6.109273 4.277027 -15.351830 -25.659060 2.072565 4.797195 0.206182 8.210177 1.680636 14.499083 
-2.265122 52.821560 3.626678 -10.087891 6.386719 -148.084854 25.739731 -15.091683 -5.408276 -17.714844 7.128907 2.989493 51.063168 8.107644 2.471410 -67.158203 -12.978515 30.166016 2.000000 -2.000000 0.000000 -70.791016 17.255859 4.794922 -51.633541 -1.937430 -2.074175 2.011044 68.562492 -1.161988 -2.000000 2.000000 0.000000 77.060547 -27.519531 6.811896 59.513195 1.642491 -2.385294 -57.378498 -65.970177 57.362286 -5.652931 8.658508 12.957773 6.762987 -5.254028 -0.813579 -2.336634 3.766004 -5.917375 3.758662 -15.662515 -25.790222 2.068300 4.788394 0.205382 8.744781 2.027156 14.313491 
-2.375217 52.853069 3.882413 -10.263672 6.572266 -147.802734 26.069511 -15.166770 -5.293103 -17.714844 7.128907 3.165274 51.063168 8.107644 2.471410 -67.929688 -13.212890 32.195034 2.000000 -2.000000 0.000000 -70.781250 17.353514 4.365234 -51.632462 -1.807850 -2.032840 1.392494 68.005280 -2.210162 -2.000000 2.000000 0.000000 76.865234 -28.037111 6.831347 60.039227 1.453854 -2.337563 -56.966503 -65.908875 57.050964 -6.103271 8.554103 12.764580 6.778843 -5.249494 -0.815058 -2.488643 3.960126 -5.774090 3.434584 -15.778073 -26.280033 2.077151 4.795143 0.167142 9.262878 2.229741 13.954277 
-2.466066 52.853069 4.119161 -10.458984 6.728516 -147.664871 26.223104 -15.239602 -5.156228 -17.890625 7.138672 3.144531 51.063168 8.107644 2.471410 -68.300781 -13.320312 33.728222 2.000000 -2.000000 0.000000 -70.781250 17.851563 3.935547 -51.808792 -1.799238 -2.052900 0.325783 67.624512 -3.721453 -2.000000 2.000000 0.000000 76.679688 -28.203123 6.777344 60.566868 1.434923 -2.348440 -56.440151 -65.890846 56.204742 -6.393498 8.333799 12.561717 6.597504 -5.242990 -0.808960 -2.484756 3.936317 -5.614841 2.955619 -16.020067 -26.610353 2.242579 4.784874 0.170622 10.112845 2.705551 13.830033 
-2.533009 52.837318 4.338640 -10.820313 6.884765 -147.391418 26.592272 -15.220259 -5.180229 -17.890625 7.138672 3.144531 51.063168 8.107644 2.471410 -68.359375 -13.652344 35.066055 2.000000 -2.000000 0.000000 -70.947266 18.388670 3.391752 -51.984570 -1.799238 -2.052900 0.181686 67.263298 -4.031961 -2.000000 2.000000 0.000000 76.103516 -28.515625 6.782449 61.448769 1.587964 -2.456905 -55.791500 -65.679504 55.735023 -7.008199 8.235651 12.339793 6.588286 -5.254926 -0.798860 -2.630881 3.933975 -5.581782 2.614837 -16.295065 -26.756416 2.242571 4.784877 0.170622 10.271780 2.858574 13.680368 
-2.588739 52.853069 4.532444 -10.996094 7.050781 -147.089844 26.741943 -15.065619 -5.116817 -17.890625 7.138672 3.320313 51.063168 8.107644 2.471410 -68.056641 -14.042967 36.003487 2.000000 -2.000000 0.000000 -70.771484 19.042969 3.010999 -51.985653 -1.928818 -2.094235 -0.600438 67.635475 -4.706660 -2.000000 2.000000 0.000000 75.703125 -28.847656 7.075368 62.150589 1.379831 -2.410306 -54.986103 -65.224129 55.056316 -7.264120 7.995315 12.346556 6.787115 -5.201317 -0.979602 -3.524390 3.634398 -5.036117 2.448663 -16.422958 -27.080221 2.418500 4.785997 0.360227 10.845232 3.139052 13.425253 
-2.588911 52.853069 4.678017 -11.015625 7.236329 -146.785873 27.084602 -14.885928 -5.064891 -17.900391 7.304688 3.359375 51.063168 8.107644 2.471410 -67.607422 -14.628906 36.904297 2.000000 -2.000000 0.000000 -70.849617 19.931641 2.792969 -52.161716 -1.919637 -2.104549 -1.791021 68.117073 -6.324296 -2.000000 2.000000 0.000000 74.736328 -29.042969 7.636718 63.206120 1.352284 -2.441239 -54.327286 -64.973633 54.390736 -7.646432 8.037001 11.952887 6.968111 -5.205409 -0.974913 -3.355957 3.448752 -4.967188 2.291405 -16.362125 -27.405603 2.418502 4.785996 0.360227 10.789408 3.224520 13.452367 
-2.544476 52.860950 4.775417 -11.015625 7.236329 -146.258530 27.214088 -14.328501 -4.986072 -17.900391 7.304688 3.359375 51.063168 8.107644 2.471410 -66.992188 -15.410155 37.968750 2.000000 -2.000000 0.000000 -70.683594 20.429688 2.542471 -52.160633 -1.790057 -2.063214 -2.297128 68.441185 -7.100222 -2.000000 2.000000 0.000000 73.916016 -29.326172 8.554688 64.437714 1.315554 -2.482482 -53.935780 -64.904343 53.972115 -7.837771 8.030811 11.941285 7.143363 -5.214660 -0.989993 -3.050470 3.183438 -5.143278 2.309599 -16.320621 -27.768665 2.418502 4.785998 0.360227 10.700248 3.313706 13.503010 
-2.453454 52.860950 4.811150 -11.015625 7.236329 -145.555405 27.389009 -13.915410 -4.998234 -17.880859 7.480468 3.388672 51.063168 8.107644 2.471410 -66.230469 -16.396484 38.844902 2.000000 -2.000000 0.000000 -70.947266 20.966799 2.142168 -52.501163 -1.601413 -2.015546 -3.270054 68.582314 -8.369371 -2.000000 2.000000 0.000000 72.783203 -29.736332 9.682657 66.021156 1.269640 -2.534038 -53.314159 -64.312080 53.230534 -8.220135 8.072402 11.567071 6.758606 -5.211853 -0.802142 -2.389255 2.468076 -5.270185 2.332943 -16.306948 -28.134180 2.595647 4.758971 0.354601 9.764786 2.783425 12.896967 
